<?xml version="1.0" encoding="UTF-8" standalone="no"?>
<!-- Generator: Adobe Illustrator 16.0.0, SVG Export Plug-In . SVG Version: 6.00 Build 0)  -->

<svg
   xmlns:dc="http://purl.org/dc/elements/1.1/"
   xmlns:cc="http://creativecommons.org/ns#"
   xmlns:rdf="http://www.w3.org/1999/02/22-rdf-syntax-ns#"
   xmlns:svg="http://www.w3.org/2000/svg"
   xmlns="http://www.w3.org/2000/svg"
   xmlns:xlink="http://www.w3.org/1999/xlink"
   xmlns:sodipodi="http://sodipodi.sourceforge.net/DTD/sodipodi-0.dtd"
   xmlns:inkscape="http://www.inkscape.org/namespaces/inkscape"
   version="1.1"
   id="Capa_1"
   x="0px"
   y="0px"
   width="485.213px"
   height="485.212px"
   viewBox="0 0 485.213 485.212"
   style="enable-background:new 0 0 485.213 485.212;"
   xml:space="preserve"
   sodipodi:docname="001-phone-symbo.svg"
   inkscape:version="0.92.1 r15371"><metadata
     id="metadata41"><rdf:RDF><cc:Work
         rdf:about=""><dc:format>image/svg+xml</dc:format><dc:type
           rdf:resource="http://purl.org/dc/dcmitype/StillImage" /></cc:Work></rdf:RDF></metadata><defs
     id="defs39"><linearGradient
       inkscape:collect="always"
       id="linearGradient4530"><stop
         style="stop-color:#0d375b;stop-opacity:1"
         offset="0"
         id="stop4526" /><stop
         style="stop-color:#1f6786;stop-opacity:1"
         offset="1"
         id="stop4528" /></linearGradient><linearGradient
       inkscape:collect="always"
       id="linearGradient4522"><stop
         style="stop-color:#000080;stop-opacity:1;"
         offset="0"
         id="stop4518" /><stop
         style="stop-color:#0d375b;stop-opacity:0"
         offset="1"
         id="stop4520" /></linearGradient><linearGradient
       inkscape:collect="always"
       xlink:href="#linearGradient4522"
       id="linearGradient4524"
       x1="246.71797"
       y1="242.606"
       x2="252.88591"
       y2="647.63464"
       gradientUnits="userSpaceOnUse" /><linearGradient
       inkscape:collect="always"
       xlink:href="#linearGradient4530"
       id="linearGradient4532"
       x1="232.3261"
       y1="168.59061"
       x2="236.43805"
       y2="814.16931"
       gradientUnits="userSpaceOnUse" /></defs><sodipodi:namedview
     pagecolor="#ffffff"
     bordercolor="#666666"
     borderopacity="1"
     objecttolerance="10"
     gridtolerance="10"
     guidetolerance="10"
     inkscape:pageopacity="0"
     inkscape:pageshadow="2"
     inkscape:window-width="737"
     inkscape:window-height="697"
     id="namedview37"
     showgrid="false"
     inkscape:zoom="0.48638533"
     inkscape:cx="288.47086"
     inkscape:cy="78.127357"
     inkscape:window-x="621"
     inkscape:window-y="0"
     inkscape:window-maximized="0"
     inkscape:current-layer="Capa_1" /><g
     id="g4"
     style="fill:url(#linearGradient4524);fill-opacity:1"><path
       d="M 242.607,0 C 108.629,0 0.001,108.628 0.001,242.606 c 0,133.976 108.628,242.606 242.606,242.606 133.978,0 242.604,-108.631 242.604,-242.606 C 485.212,108.628 376.585,0 242.607,0 Z m 128.112,353.989 -19.425,19.429 c -3.468,3.463 -13.623,5.624 -13.949,5.624 -61.452,0.536 -120.621,-23.602 -164.095,-67.08 -43.593,-43.618 -67.759,-102.998 -67.11,-164.657 0,-0.028 2.224,-9.892 5.689,-13.324 l 19.424,-19.427 c 7.108,-7.141 20.762,-10.368 30.327,-7.168 l 4.086,1.363 c 9.537,3.197 19.55,13.742 22.185,23.457 l 9.771,35.862 c 2.635,9.743 -0.919,23.604 -8.025,30.712 l -12.97,12.972 c 12.734,47.142 49.723,84.138 96.873,96.903 l 12.965,-12.975 c 7.141,-7.141 20.997,-10.692 30.719,-8.061 l 35.857,9.806 c 9.717,2.67 20.26,12.62 23.456,22.154 l 1.363,4.145 c 3.168,9.538 -0.034,23.189 -7.141,30.265 z"
       id="path2"
       inkscape:connector-curvature="0"
       style="fill:url(#linearGradient4532);fill-opacity:1" /></g><g
     id="g6" /><g
     id="g8" /><g
     id="g10" /><g
     id="g12" /><g
     id="g14" /><g
     id="g16" /><g
     id="g18" /><g
     id="g20" /><g
     id="g22" /><g
     id="g24" /><g
     id="g26" /><g
     id="g28" /><g
     id="g30" /><g
     id="g32" /><g
     id="g34" /></svg>