<?xml version="1.0" encoding="UTF-8" standalone="no"?>
<!-- Generated by IcoMoon.io -->

<svg
   xmlns:dc="http://purl.org/dc/elements/1.1/"
   xmlns:cc="http://creativecommons.org/ns#"
   xmlns:rdf="http://www.w3.org/1999/02/22-rdf-syntax-ns#"
   xmlns:svg="http://www.w3.org/2000/svg"
   xmlns="http://www.w3.org/2000/svg"
   xmlns:sodipodi="http://sodipodi.sourceforge.net/DTD/sodipodi-0.dtd"
   xmlns:inkscape="http://www.inkscape.org/namespaces/inkscape"
   version="1.1"
   width="24"
   height="28"
   viewBox="0 0 24 28"
   id="svg4"
   sodipodi:docname="006-user-o.svg"
   inkscape:version="0.92.1 r15371">
  <metadata
     id="metadata10">
    <rdf:RDF>
      <cc:Work
         rdf:about="">
        <dc:format>image/svg+xml</dc:format>
        <dc:type
           rdf:resource="http://purl.org/dc/dcmitype/StillImage" />
      </cc:Work>
    </rdf:RDF>
  </metadata>
  <defs
     id="defs8" />
  <sodipodi:namedview
     pagecolor="#ffffff"
     bordercolor="#666666"
     borderopacity="1"
     objecttolerance="10"
     gridtolerance="10"
     guidetolerance="10"
     inkscape:pageopacity="0"
     inkscape:pageshadow="2"
     inkscape:window-width="1366"
     inkscape:window-height="705"
     id="namedview6"
     showgrid="false"
     inkscape:zoom="8.4285714"
     inkscape:cx="12"
     inkscape:cy="14"
     inkscape:window-x="-4"
     inkscape:window-y="-4"
     inkscape:window-maximized="1"
     inkscape:current-layer="svg4" />
  <path
     style="fill:#ffffff;stroke-width:0.11864407"
     d="M 4.0802332,25.638219 C 3.8027514,25.500868 3.3405037,25.126872 3.0530161,24.807116 2.1570907,23.810632 1.9196375,22.677221 2.1429157,20.463027 2.2939863,18.964897 2.7219101,17.34398 3.1979991,16.466514 3.8664831,15.23445 5.226664,14.210537 6.3050847,14.12757 c 0.3153649,-0.02426 0.5436835,0.06288 0.9491526,0.36224 2.7657457,2.041999 6.8262877,2.03695 9.4947867,-0.01181 0.532904,-0.409139 0.542306,-0.411348 1.186441,-0.278704 0.864189,0.177959 1.353831,0.451889 2.005526,1.121993 1.045102,1.074625 1.676943,2.770133 1.916093,5.141733 0.223499,2.216381 -0.01404,3.347457 -0.912994,4.347308 -1.026935,1.142199 -0.492125,1.077814 -8.951888,1.077707 -7.2914824,-9.1e-5 -7.4153551,-0.004 -7.9119688,-0.249823 z"
     id="path4487"
     inkscape:connector-curvature="0" />
  <path
     style="fill:#ffffff;stroke-width:0.11864407"
     d="M 10.332461,13.681415 C 9.2849729,13.346205 8.4967066,12.856467 7.7455291,12.074194 4.4092286,8.5997832 6.3386689,2.9517857 11.139831,2.1381483 c 1.767384,-0.299513 3.73987,0.3690672 5.057924,1.7143995 3.152669,3.2179155 1.806382,8.4632452 -2.519574,9.8166382 -0.961008,0.300655 -2.427674,0.306015 -3.34572,0.01223 z"
     id="path4489"
     inkscape:connector-curvature="0" />
  <path
     style="fill:#ffffff;stroke-width:0.16588922"
     d="M 9.5345761,15.510089 C 7.9844887,15.067241 6.8180013,14.420246 5.7063984,13.386782 2.3611261,10.276659 2.3852167,5.6247034 5.7625198,2.5496688 c 3.475472,-3.16441785 9.0039352,-3.16441785 12.4794072,0 4.642054,4.2265909 2.629867,11.1606032 -3.756308,12.9442642 -1.422113,0.397197 -3.592506,0.404278 -4.9510429,0.01616 z"
     id="path4503"
     inkscape:connector-curvature="0" />
  <path
     style="fill:#ffffff;stroke-width:0.13382475"
     d="m 3.3541384,26.580261 c -0.2874611,-0.138444 0.6298881,0.02173 0.2984408,-0.3691 -1.0154217,-1.197356 -2.71269277,-3.166867 -2.4493347,-5.753415 0.1727353,-1.696505 0.6428515,-3.55806 1.1544078,-4.571194 0.7113999,-1.408925 2.2225563,-2.610831 3.403726,-2.707171 0.3439153,-0.02805 0.5975937,0.07351 1.0397704,0.416227 3.0178164,2.339089 7.3378693,2.363377 10.3002753,0.05791 0.521152,-0.405583 0.76037,-0.506625 1.126851,-0.475962 1.216887,0.101808 2.6612,1.253868 3.416549,2.725207 0.506351,0.986318 0.978782,2.854411 1.151932,4.55498 0.263357,2.586548 -0.247478,4.200127 -1.262894,5.397483 -1.09081,1.286251 -3.001625,1.716003 -9.889794,1.569967 -6.164183,-0.130686 -7.8016422,-0.60977 -8.2899296,-0.844934 z"
     id="path4505"
     inkscape:connector-curvature="0"
     sodipodi:nodetypes="csssccccsscscc" />
</svg>
