<?xml version="1.0" encoding="UTF-8" standalone="no"?>
<!-- Generated by IcoMoon.io -->

<svg
   xmlns:dc="http://purl.org/dc/elements/1.1/"
   xmlns:cc="http://creativecommons.org/ns#"
   xmlns:rdf="http://www.w3.org/1999/02/22-rdf-syntax-ns#"
   xmlns:svg="http://www.w3.org/2000/svg"
   xmlns="http://www.w3.org/2000/svg"
   xmlns:xlink="http://www.w3.org/1999/xlink"
   xmlns:sodipodi="http://sodipodi.sourceforge.net/DTD/sodipodi-0.dtd"
   xmlns:inkscape="http://www.inkscape.org/namespaces/inkscape"
   version="1.1"
   width="24"
   height="24"
   viewBox="0 0 24 24"
   id="svg8"
   sodipodi:docname="007-shopping-cart.svg"
   inkscape:version="0.92.1 r15371">
  <metadata
     id="metadata14">
    <rdf:RDF>
      <cc:Work
         rdf:about="">
        <dc:format>image/svg+xml</dc:format>
        <dc:type
           rdf:resource="http://purl.org/dc/dcmitype/StillImage" />
      </cc:Work>
    </rdf:RDF>
  </metadata>
  <defs
     id="defs12">
    <linearGradient
       inkscape:collect="always"
       id="linearGradient4507">
      <stop
         style="stop-color:#0e5b90;stop-opacity:1;"
         offset="0"
         id="stop4503" />
      <stop
         style="stop-color:#0e5b90;stop-opacity:0;"
         offset="1"
         id="stop4505" />
    </linearGradient>
    <linearGradient
       inkscape:collect="always"
       xlink:href="#linearGradient4507"
       id="linearGradient4509"
       x1="1.9290325"
       y1="9.968618"
       x2="20.870675"
       y2="9.968618"
       gradientUnits="userSpaceOnUse" />
  </defs>
  <sodipodi:namedview
     pagecolor="#ffffff"
     bordercolor="#666666"
     borderopacity="1"
     objecttolerance="10"
     gridtolerance="10"
     guidetolerance="10"
     inkscape:pageopacity="0"
     inkscape:pageshadow="2"
     inkscape:window-width="1366"
     inkscape:window-height="705"
     id="namedview10"
     showgrid="false"
     inkscape:zoom="9.8333333"
     inkscape:cx="12"
     inkscape:cy="12"
     inkscape:window-x="-4"
     inkscape:window-y="-4"
     inkscape:window-maximized="1"
     inkscape:current-layer="svg8" />
  <path
     d="m 1.9940305,5.345 c 0.191,-0.219 0.466,-0.345 0.756,-0.345 H 16.56903 l 0.195,-1.164 C 16.84403,3.354 17.26103,3 17.75003,3 h 2.25 c 0.553,0 1,0.447 1,1 0,0.553 -0.447,1 -1,1 h -1.403 l -1.86,11.164 c -0.008,0.045 -0.031,0.082 -0.045,0.124 -0.016,0.053 -0.029,0.103 -0.054,0.151 -0.032,0.066 -0.075,0.122 -0.12,0.179 -0.031,0.039 -0.059,0.078 -0.095,0.112 -0.058,0.054 -0.125,0.092 -0.193,0.13 -0.038,0.021 -0.071,0.049 -0.112,0.065 -0.116,0.047 -0.238,0.075 -0.367,0.075 -10e-4,0 -11.0009995,0 -11.0009995,0 -0.553,0 -1,-0.447 -1,-1 0,-0.553 0.447,-1 1,-1 H 14.90303 l 0.166,-1 H 3.7500305 c -0.498,0 -0.92,-0.366 -0.99,-0.858 l -1,-7 c -0.041,-0.288 0.045,-0.579 0.234,-0.797 z m 1.909,1.655 0.285,2 h 3.562 V 7 Z m 4.847,0 V 9 H 11.75003 V 7 Z m 0,3 v 2 H 11.75003 V 10 Z M 12.75003,7 v 2 h 3 c 0.053,0 0.101,0.015 0.148,0.03 L 16.23603,7 Z m 2.986,3 h -2.986 v 2 h 2.653 z m -7.9859995,2 v -2 h -3.418 l 0.285,2 z"
     id="path2"
     inkscape:connector-curvature="0" />
  <path
     d="m 12.75003,19.5 c 0,0.828 0.672,1.5 1.5,1.5 0.828,0 1.5,-0.672 1.5,-1.5 0,-0.828 -0.672,-1.5 -1.5,-1.5 -0.828,0 -1.5,0.672 -1.5,1.5 z"
     id="path4"
     inkscape:connector-curvature="0" />
  <path
     d="m 3.7500305,19.5 c 0,0.828 0.672,1.5 1.5,1.5 0.828,0 1.5,-0.672 1.5,-1.5 0,-0.828 -0.672,-1.5 -1.5,-1.5 -0.828,0 -1.5,0.672 -1.5,1.5 z"
     id="path6"
     inkscape:connector-curvature="0" />
  <path
     style="fill:#1f6786;fill-opacity:1;stroke-width:0.10169491"
     d="m 4.2457605,16.791853 c -0.097883,-0.05701 -0.2492357,-0.241472 -0.3363401,-0.409914 -0.1290116,-0.249481 -0.1367551,-0.371756 -0.04177,-0.659564 0.22245,-0.674031 0.018345,-0.651189 5.8186069,-0.651189 h 5.2473817 l 0.08501,-0.533898 0.08501,-0.533898 L 9.2320518,13.95254 3.360445,13.90169 3.1032356,13.644428 C 2.8614907,13.402634 2.81438,13.164241 2.3194692,9.6783311 2.0033708,7.4518892 1.821391,5.8582271 1.8641703,5.6911169 1.9033646,5.5380109 2.0585052,5.3320787 2.2089272,5.2334898 2.4615439,5.0679208 3.0218483,5.0503558 9.5488099,5.0033898 L 16.615198,4.9525424 16.745217,4.240678 c 0.203391,-1.1135815 0.305348,-1.1694916 2.132684,-1.1694916 h 1.476728 l 0.297261,0.2972621 c 0.377726,0.3777247 0.390511,0.7966529 0.03713,1.2166209 -0.250752,0.2980016 -0.293839,0.3102007 -1.194915,0.338311 l -0.934784,0.029162 -0.921567,5.4915256 c -0.506862,3.020339 -0.953603,5.616107 -0.992756,5.768371 -0.03915,0.152266 -0.170791,0.369639 -0.292525,0.483051 -0.217108,0.202268 -0.333081,0.206146 -6.07504,0.203112 -3.7864742,-0.002 -5.9165546,-0.0397 -6.0316725,-0.106749 z M 7.8305085,11.00339 V 9.9864407 H 6.0427673 4.255026 L 4.30851,10.266102 c 0.029416,0.153813 0.081265,0.485593 0.1152186,0.737288 0.033954,0.251695 0.085802,0.583474 0.1152186,0.737288 l 0.053484,0.279661 H 6.21147 7.8305085 Z m 3.9661015,0 V 9.9864407 H 10.271186 8.7457627 v 1.0169493 1.016949 h 1.5254233 1.525424 z m 3.756064,0.330508 c 0.06376,-0.377542 0.142194,-0.835169 0.174299,-1.016949 l 0.05837,-0.3305083 H 14.248602 12.71186 v 1.0169493 1.016949 h 1.362443 1.362441 z M 7.8305085,8.0033898 V 6.9355932 H 5.8474576 c -1.3272396,0 -1.9830508,0.035597 -1.9830508,0.1076387 0,0.1417744 0.1971379,1.5064774 0.2598946,1.799141 0.048673,0.2269854 0.063675,0.2288135 1.8776361,0.2288135 h 1.828571 z m 3.9661015,0 V 6.9355932 H 10.271186 8.7457627 v 1.0677966 1.0677966 h 1.5254233 1.525424 z m 4.266808,0.279661 c 0.06887,-0.4334745 0.149514,-0.913983 0.179205,-1.0677966 l 0.05399,-0.279661 H 14.50424 12.711867 v 1.0677966 1.0677966 h 1.613167 1.613166 z"
     id="path4491"
     inkscape:connector-curvature="0" />
  <path
     style="fill:#1f6786;fill-opacity:1;stroke-width:0.10169491"
     d="m 13.629146,20.79685 c -1.281067,-0.663477 -0.964757,-2.513179 0.466305,-2.72684 0.788753,-0.117763 1.565942,0.584614 1.565186,1.41452 -9.66e-4,1.06352 -1.118273,1.785285 -2.031491,1.31232 z"
     id="path4493"
     inkscape:connector-curvature="0" />
  <path
     style="fill:#0e5b90;fill-opacity:1;stroke-width:0.10169491"
     d="M 4.606859,20.757949 C 4.05116,20.482881 3.7162365,19.848376 3.8228956,19.272747 c 0.093914,-0.506847 0.6855907,-1.109702 1.1801917,-1.20249 0.561963,-0.105425 1.2337326,0.231154 1.4989506,0.751024 0.2596016,0.508861 0.2654678,0.877326 0.021274,1.336238 -0.208828,0.392449 -0.841962,0.807756 -1.2351762,0.810219 -0.1398305,8.75e-4 -0.446405,-0.09353 -0.6812767,-0.209789 z"
     id="path4495"
     inkscape:connector-curvature="0" />
  <path
     style="fill:url(#linearGradient4509);fill-opacity:1;stroke-width:0.10169491"
     d="M 6.285366,16.83328 4.2825964,16.79574 4.0735016,16.52992 C 3.7962655,16.17747 3.8059888,15.73053 4.0972286,15.439291 4.3095195,15.227 4.4544213,15.200505 5.7404264,15.138829 c 0.7757068,-0.0372 3.161921,-0.06764 5.3026976,-0.06764 4.338953,0 3.917625,0.075 4.051272,-0.721153 l 0.06131,-0.365221 -5.8736785,-0.0724 C 3.5350851,13.841569 3.4035193,13.835469 3.1845426,13.629752 3.0614494,13.514111 2.9153842,13.207653 2.8599534,12.948731 2.6857802,12.135157 2.0348898,7.3881441 1.969536,6.4548223 1.8732507,5.0797663 1.6175156,5.1701537 5.8326414,5.0894388 7.7424852,5.0528674 10.959093,5.0185453 12.980659,5.0131676 l 3.675575,-0.00978 0.11185,-0.6355932 c 0.204391,-1.1614678 0.414859,-1.2694655 2.5095,-1.2877011 1.006575,-0.00876 1.02808,-0.00397 1.312188,0.2925768 0.37182,0.3880957 0.374685,0.8480358 0.0076,1.2153022 -0.236502,0.2365998 -0.35402,0.2664253 -1.175816,0.2984151 -0.502175,0.019548 -0.913047,0.056369 -0.913047,0.081824 0,0.062063 -1.04092,6.2840636 -1.477529,8.8317866 -0.419779,2.44952 -0.50251,2.760629 -0.772543,2.905146 -0.223183,0.119445 -6.2830486,0.197301 -9.973037,0.128134 z M 7.8305085,11.00339 V 9.9864407 h -1.779661 c -1.5432622,0 -1.7796611,0.021037 -1.7796611,0.1583763 0,0.186526 0.2053039,1.563978 0.2605925,1.748403 0.028427,0.09482 0.4522924,0.127119 1.6684192,0.127119 h 1.6303104 z m 3.9661015,0 V 9.9864407 H 10.271186 8.7457627 v 1.0169493 1.016949 h 1.5254233 1.525424 z m 3.66539,0.991525 c 0.0024,-0.01398 0.08566,-0.47161 0.185,-1.016949 l 0.180626,-0.9915253 h -1.557881 -1.557881 v 1.0169493 1.016949 h 1.372882 c 0.755085,0 1.374849,-0.01144 1.377254,-0.02542 z M 7.8305085,8.0033898 V 6.9355932 H 5.8474576 3.8644068 l 7.729e-4,0.279661 c 8.237e-4,0.3007191 0.179255,1.5195821 0.2530805,1.7288136 0.033634,0.095337 0.503306,0.1271186 1.8785481,0.1271186 h 1.8337002 z m 3.9661015,0 V 6.9355932 H 10.271186 8.7457627 v 1.0677966 1.0677966 h 1.5254233 1.525424 z m 4.173128,1.0423729 c 0.002,-0.013983 0.08401,-0.4944915 0.18225,-1.0677966 l 0.178613,-1.0423729 h -1.809368 -1.809369 v 1.0677966 1.0677966 h 1.627119 c 0.894915,0 1.628755,-0.011441 1.630755,-0.025424 z"
     id="path4497"
     inkscape:connector-curvature="0" />
  <path
     style="fill:#0e5b90;fill-opacity:1;stroke-width:0.10169491"
     d="m 5.0847458,20.897241 c -0.8027977,-0.285024 -1.220339,-0.744571 -1.220339,-1.343108 0,-0.733469 0.6615488,-1.43234 1.3552601,-1.431719 1.0532917,9.43e-4 1.7227997,1.095942 1.2404257,2.02875 -0.2285069,0.441884 -1.0211124,0.871845 -1.3753468,0.746077 z"
     id="path4499"
     inkscape:connector-curvature="0" />
  <path
     style="fill:#0e5b90;fill-opacity:1;stroke-width:0.10169491"
     d="m 13.31007,20.472981 c -0.362611,-0.362611 -0.394816,-0.440296 -0.394816,-0.952387 0,-0.908042 0.614989,-1.470318 1.499159,-1.370659 1.188437,0.133954 1.603199,1.59495 0.682325,2.403487 -0.299738,0.263174 -0.442238,0.314375 -0.874953,0.314375 -0.464846,0 -0.556659,-0.03976 -0.911715,-0.394816 z"
     id="path4501"
     inkscape:connector-curvature="0" />
</svg>
