<?xml version="1.0" encoding="UTF-8" standalone="no"?>
<!-- Created with Inkscape (http://www.inkscape.org/) -->

<svg
   xmlns:dc="http://purl.org/dc/elements/1.1/"
   xmlns:cc="http://creativecommons.org/ns#"
   xmlns:rdf="http://www.w3.org/1999/02/22-rdf-syntax-ns#"
   xmlns:svg="http://www.w3.org/2000/svg"
   xmlns="http://www.w3.org/2000/svg"
   xmlns:sodipodi="http://sodipodi.sourceforge.net/DTD/sodipodi-0.dtd"
   xmlns:inkscape="http://www.inkscape.org/namespaces/inkscape"
   width="120"
   height="35"
   viewBox="0 0 31.749999 9.2604169"
   version="1.1"
   id="svg8"
   inkscape:version="0.92.1 r15371"
   sodipodi:docname="sprite.svg">
  <defs
     id="defs2" />
  <sodipodi:namedview
     id="base"
     pagecolor="#ffffff"
     bordercolor="#666666"
     borderopacity="1.0"
     inkscape:pageopacity="0.0"
     inkscape:pageshadow="2"
     inkscape:zoom="0.35"
     inkscape:cx="-91.428571"
     inkscape:cy="560"
     inkscape:document-units="mm"
     inkscape:current-layer="layer1"
     showgrid="false"
     units="px"
     inkscape:window-width="1366"
     inkscape:window-height="705"
     inkscape:window-x="-4"
     inkscape:window-y="-4"
     inkscape:window-maximized="1" />
  <metadata
     id="metadata5">
    <rdf:RDF>
      <cc:Work
         rdf:about="">
        <dc:format>image/svg+xml</dc:format>
        <dc:type
           rdf:resource="http://purl.org/dc/dcmitype/StillImage" />
        <dc:title></dc:title>
      </cc:Work>
    </rdf:RDF>
  </metadata>
  <g
     inkscape:label="Layer 1"
     inkscape:groupmode="layer"
     id="layer1"
     transform="translate(0,-287.73956)">
    <path
       style="fill:#000000;stroke-width:4.80029774"
       d=""
       id="path4496"
       inkscape:connector-curvature="0" />
    <path
       style="fill:#241c1c;fill-opacity:1;stroke-width:0.05486033"
       d="M 6.0479515,296.89792 C 5.6286869,296.74704 5.0502911,296.34138 4.8176556,296.03504 4.6856315,295.86119 4.5781304,295.62929 4.507515,295.366 4.3573698,294.80618 4.0161317,294.32614 3.1559292,293.46466 2.2781997,292.58563 1.8089096,292.26063 1.2508373,292.14533 0.80702014,292.05363 0.51892144,291.89156 0.30786774,291.61485 0.09297161,291.33311 0,291.06007 0,290.71071 c 0,-0.38392 0.10282245,-0.56258 0.32377014,-0.56258 0.1763478,0 0.3070917,0.12429 0.3944989,0.37503 0.1210321,0.34719 0.30879376,0.34021 0.67405576,-0.0251 0.3644385,-0.36444 0.3849819,-0.57237 0.06692,-0.67734 -0.67634176,-0.22322 -0.4451818,-0.82375 0.286631,-0.74464 0.3478546,0.0376 0.6444038,0.1791 0.8899602,0.42466 0.2358515,0.23585 0.3610841,0.53205 0.4264088,1.00855 0.077821,0.56765 0.315849,0.99479 0.9764264,1.7522 0.3828292,0.43895 1.0564926,1.00679 1.4058834,1.18504 0.1224345,0.0625 0.3719727,0.13468 0.5545296,0.16048 0.9780236,0.13824 2.0380866,1.17652 1.9309099,1.89122 -0.048189,0.32135 -0.1881097,0.49236 -0.3662564,0.44765 -0.074371,-0.0187 -0.2900124,-0.15817 -0.4792024,-0.31 -0.4696833,-0.37695 -0.8304584,-0.37825 -0.8304584,-0.003 0,0.15318 0.089044,0.30534 0.3541146,0.6051 0.093582,0.10582 0.2035683,0.27309 0.2444148,0.3717 0.1531466,0.36973 -0.2133373,0.50099 -0.8046546,0.28819 z"
       id="path4508"
       inkscape:connector-curvature="0" />
    <path
       style="fill:#241c1c;fill-opacity:1;stroke-width:0.05130833"
       d="m 11.550711,296.96474 c -0.381133,-0.11594 -0.698674,-0.39876 -0.867879,-0.773 -0.132274,-0.29255 -0.132553,-0.42716 -0.0015,-0.69799 0.204328,-0.42209 0.586552,-0.61896 1.602784,-0.82556 l 0.703508,-0.14302 v -2.70466 -2.70466 l 0.166752,-0.0285 c 0.09171,-0.0156 0.559261,-0.0742 1.038994,-0.13003 1.642675,-0.1913 3.170619,-0.41452 3.516598,-0.51375 0.316873,-0.0909 0.550861,-0.0648 0.640106,0.0714 0.153101,0.23366 0.188729,1.00805 0.163161,3.54636 -0.02551,2.5328 -0.04419,2.77486 -0.246282,3.19233 -0.11138,0.23008 -0.502608,0.54787 -0.96943,0.78745 -0.49707,0.2551 -1.162371,0.0861 -1.594778,-0.40517 -0.340262,-0.38655 -0.320056,-0.81319 0.05634,-1.18958 0.253441,-0.25344 0.53135,-0.39555 1.057589,-0.54079 0.552791,-0.15258 0.627382,-0.19827 0.74027,-0.45347 0.212177,-0.47966 0.267778,-2.37587 0.0803,-2.73842 -0.04692,-0.0907 -0.147361,-0.2056 -0.223201,-0.25525 -0.26849,-0.17577 -1.228797,-0.0932 -3.486141,0.29987 l -0.316779,0.0552 -0.02071,2.44538 c -0.023,2.71589 -0.03933,2.85947 -0.36281,3.19034 -0.376554,0.38515 -1.236439,0.64947 -1.67694,0.51547 z"
       id="path5385"
       inkscape:connector-curvature="0" />
    <path
       style="fill:#241c1c;fill-opacity:1;stroke-width:0.06468216"
       d="m 27.21217,296.82658 c -0.2698,-0.41176 -0.56882,-0.70167 -0.87223,-0.84564 -0.20856,-0.099 -0.24608,-0.0985 -0.55713,0.007 -0.45164,0.15351 -1.07669,0.0776 -2.19481,-0.26663 -0.71805,-0.22105 -1.24078,-0.49837 -1.60711,-0.85261 -0.39833,-0.38517 -0.58719,-0.70947 -0.73146,-1.25603 -0.10996,-0.41657 -0.11007,-0.45605 -0.002,-0.86008 0.19548,-0.73361 0.70755,-1.30429 1.49893,-1.6705 0.55363,-0.2562 0.76243,-0.32173 1.32599,-0.41617 0.78274,-0.13117 1.10619,-0.13083 1.92305,0.002 0.66222,0.10771 0.8448,0.1671 1.49958,0.48781 1.03762,0.50822 1.70205,1.4924 1.59906,2.36861 -0.0744,0.63295 -0.65566,1.55657 -1.05997,1.68429 -0.0801,0.0253 -0.24969,0.15317 -0.37693,0.28417 l -0.23133,0.23818 0.0295,0.5498 c 0.0399,0.74333 -0.022,0.88235 -0.2427,0.54553 z"
       id="path5400"
       inkscape:connector-curvature="0" />
  </g>
</svg>
