<?xml version="1.0" encoding="UTF-8" standalone="no"?>
<!-- Created with Inkscape (http://www.inkscape.org/) -->

<svg
   xmlns:dc="http://purl.org/dc/elements/1.1/"
   xmlns:cc="http://creativecommons.org/ns#"
   xmlns:rdf="http://www.w3.org/1999/02/22-rdf-syntax-ns#"
   xmlns:svg="http://www.w3.org/2000/svg"
   xmlns="http://www.w3.org/2000/svg"
   xmlns:sodipodi="http://sodipodi.sourceforge.net/DTD/sodipodi-0.dtd"
   xmlns:inkscape="http://www.inkscape.org/namespaces/inkscape"
   width="93"
   height="25"
   viewBox="0 0 24.606249 6.6145835"
   version="1.1"
   id="svg8"
   inkscape:version="0.92.1 r15371"
   sodipodi:docname="sprite.svg">
  <defs
     id="defs2" />
  <sodipodi:namedview
     id="base"
     pagecolor="#ffffff"
     bordercolor="#666666"
     borderopacity="1.0"
     inkscape:pageopacity="0.0"
     inkscape:pageshadow="2"
     inkscape:zoom="5.6"
     inkscape:cx="38.777468"
     inkscape:cy="6.332831"
     inkscape:document-units="mm"
     inkscape:current-layer="layer1"
     showgrid="false"
     units="px"
     inkscape:window-width="1366"
     inkscape:window-height="705"
     inkscape:window-x="-4"
     inkscape:window-y="-4"
     inkscape:window-maximized="1" />
  <metadata
     id="metadata5">
    <rdf:RDF>
      <cc:Work
         rdf:about="">
        <dc:format>image/svg+xml</dc:format>
        <dc:type
           rdf:resource="http://purl.org/dc/dcmitype/StillImage" />
        <dc:title />
      </cc:Work>
    </rdf:RDF>
  </metadata>
  <g
     inkscape:label="Layer 1"
     inkscape:groupmode="layer"
     id="layer1"
     transform="translate(0,-290.38539)">
    <path
       style="fill:#000000;stroke-width:4.80029774"
       d=""
       id="path4496"
       inkscape:connector-curvature="0" />
    <path
       style="fill:#ffffff;fill-opacity:1;stroke-width:0.04575097"
       d="m 5.3082941,296.91487 c -0.3496473,-0.12584 -0.8320024,-0.46414 -1.0260097,-0.71961 -0.1101019,-0.14499 -0.1997529,-0.33838 -0.2586428,-0.55794 -0.1252142,-0.46687 -0.4097909,-0.8672 -1.1271598,-1.58563 -0.7319858,-0.73308 -1.1233518,-1.00411 -1.5887582,-1.10027 -0.37012297,-0.0765 -0.61038391,-0.21163 -0.7863929,-0.44239 -0.17921336,-0.23497 -0.25674737,-0.46266 -0.25674737,-0.75401 0,-0.32018 0.0857491,-0.46917 0.27000923,-0.46917 0.14706588,0 0.25610023,0.10366 0.32899378,0.31276 0.10093514,0.28954 0.25751966,0.28371 0.56213116,-0.0209 0.3039248,-0.30393 0.321057,-0.47734 0.055809,-0.56487 -0.56403771,-0.18616 -0.371261,-0.68697 0.2390369,-0.621 0.2900945,0.0313 0.5374029,0.14937 0.7421855,0.35415 0.1966892,0.19668 0.3011274,0.4437 0.3556051,0.84108 0.064899,0.4734 0.2634034,0.82961 0.8142943,1.46125 0.3192618,0.36607 0.8810658,0.83962 1.1724415,0.98828 0.1021047,0.0521 0.3102079,0.11231 0.4624519,0.13383 0.8156263,0.11528 1.6996697,0.98115 1.6102892,1.57719 -0.040188,0.26799 -0.1568747,0.4106 -0.3054408,0.37332 -0.062022,-0.0156 -0.2418569,-0.13191 -0.3996325,-0.25853 -0.3916941,-0.31436 -0.6925638,-0.31544 -0.6925638,-0.002 0,0.12775 0.074258,0.25464 0.2953151,0.50463 0.078043,0.0883 0.1697666,0.22774 0.2038306,0.30998 0.1277172,0.30833 -0.1779133,0.4178 -0.6710445,0.24033 z"
       id="path4508"
       inkscape:connector-curvature="0" />
    <path
       style="fill:#ffffff;fill-opacity:1;stroke-width:0.03941854"
       d="m 8.945295,296.9729 c -0.292812,-0.0891 -0.536769,-0.30636 -0.666764,-0.59387 -0.101622,-0.22476 -0.101836,-0.32818 -0.0012,-0.53625 0.156978,-0.32428 0.450629,-0.47552 1.231368,-0.63425 l 0.540482,-0.10988 v -2.0779 -2.0779 l 0.12811,-0.0219 c 0.07045,-0.012 0.429663,-0.057 0.798226,-0.0999 1.262015,-0.14697 2.435885,-0.31847 2.701689,-0.3947 0.243444,-0.0698 0.423209,-0.0498 0.491774,0.0548 0.117622,0.17952 0.144994,0.77446 0.125351,2.72455 -0.0196,1.94588 -0.03395,2.13184 -0.18921,2.45257 -0.08557,0.17677 -0.386138,0.42091 -0.744782,0.60497 -0.381883,0.19599 -0.893013,0.0661 -1.225217,-0.31127 -0.261413,-0.29698 -0.245889,-0.62475 0.04328,-0.91392 0.194711,-0.19471 0.408219,-0.30389 0.812511,-0.41547 0.424693,-0.11722 0.481998,-0.15233 0.568726,-0.34839 0.163009,-0.3685 0.205725,-1.82531 0.0617,-2.10384 -0.03605,-0.0697 -0.113213,-0.15796 -0.171478,-0.1961 -0.206273,-0.13504 -0.944045,-0.0716 -2.678291,0.23038 l -0.243371,0.0424 -0.01591,1.87871 c -0.01767,2.08653 -0.03022,2.19684 -0.278735,2.45104 -0.289295,0.29589 -0.949917,0.49896 -1.28834,0.39601 z"
       id="path5385"
       inkscape:connector-curvature="0" />
    <path
       style="fill:#ffffff;fill-opacity:1;stroke-width:0.06651582"
       d="m 22.356474,296.82155 c -0.277448,-0.42343 -0.584945,-0.72156 -0.896958,-0.86961 -0.214472,-0.10181 -0.253055,-0.10132 -0.572922,0.007 -0.464444,0.15787 -1.107213,0.0799 -2.25703,-0.27418 -0.738406,-0.22732 -1.275955,-0.5125 -1.65267,-0.87679 -0.409622,-0.39609 -0.603835,-0.72957 -0.752196,-1.29163 -0.113078,-0.42838 -0.113189,-0.46897 -0.0021,-0.88446 0.201022,-0.7544 0.727609,-1.34127 1.541424,-1.71786 0.569324,-0.26346 0.784043,-0.33085 1.363579,-0.42796 0.80493,-0.1349 1.137549,-0.13454 1.977566,0.002 0.680993,0.11082 0.868749,0.17184 1.542091,0.50163 1.067035,0.52264 1.7503,1.53471 1.644391,2.43577 -0.07651,0.65089 -0.674247,1.6007 -1.090019,1.73204 -0.08237,0.026 -0.256767,0.1575 -0.387615,0.29221 l -0.237888,0.24494 0.03033,0.56538 c 0.04103,0.76441 -0.02262,0.90737 -0.249581,0.561 z"
       id="path5400"
       inkscape:connector-curvature="0" />
    <path
       style="fill:#ffffff;fill-opacity:1;stroke-width:0.17857143"
       d="m 20.473897,24.702499 c -1.870906,-0.593241 -3.854416,-2.082657 -4.601466,-3.455232 -0.268301,-0.492957 -0.48782,-1.016732 -0.48782,-1.163943 0,-0.147212 -0.335846,-0.939909 -0.746325,-1.761548 C 13.977151,16.998404 13.574585,16.51015 11.111501,14.0443 8.0200483,10.949376 7.1279011,10.289038 5.2977558,9.7411592 3.5496674,9.2178451 2.840271,8.8271895 2.1288976,7.9961097 0.77438474,6.4136661 0.73212245,3.5243119 2.0634891,3.5243119 c 0.4717858,0 0.8454281,0.3836735 1.1680599,1.1994189 C 3.3565011,5.0396613 3.6120244,5.346802 3.7993783,5.4062658 4.4393235,5.6093765 5.9694404,4.3372222 6.3362963,3.2970474 6.4583177,2.9510704 6.2018615,2.6644045 5.2060397,2.0336508 4.4237192,1.5381287 4.2812445,0.834867 4.8784351,0.41657841 5.4267119,0.03255039 6.9004342,0.05696852 7.7953254,0.46490841 9.4461306,1.2174349 10.045551,2.0924765 10.577387,4.5261961 c 0.552505,2.5283024 1.717627,4.326755 4.523275,6.9820139 1.894222,1.792688 3.069232,2.5055 4.69021,2.845285 3.73443,0.782802 6.848223,4.221345 5.953562,6.574483 -0.339907,0.894023 -0.932241,0.780159 -2.745393,-0.527746 -1.091589,-0.787411 -1.998732,-0.859543 -2.257287,-0.179492 -0.218752,0.575359 0.0076,1.170304 0.882857,2.320988 1.116204,1.467373 1.199248,1.70532 0.728275,2.086691 -0.462343,0.37438 -0.880003,0.390848 -1.878989,0.07408 z"
       id="path4486"
       inkscape:connector-curvature="0"
       transform="matrix(0.26458333,0,0,0.26458333,0,290.38539)" />
    <path
       style="fill:#ffffff;fill-opacity:1;stroke-width:0.17857143"
       d="m 33.282375,24.574949 c -1.350581,-0.668525 -2.388851,-2.350914 -2.117663,-3.431412 0.164844,-0.656789 0.947598,-1.510941 1.768373,-1.92967 0.394809,-0.201416 1.690504,-0.583302 2.879323,-0.848635 l 2.161489,-0.482425 0.04648,-7.86011 0.04648,-7.8601087 4.685666,-0.5887577 c 2.577117,-0.3238167 5.609774,-0.75085139 6.739238,-0.94896605 1.129464,-0.19811464 2.453007,-0.37008948 2.941207,-0.38216628 1.435518,-0.0355111 1.423163,-0.097467 1.493475,7.48816143 0.07012,7.5648083 -0.117962,10.9325893 -0.671109,12.0168473 -0.398957,0.782019 -1.835412,1.978944 -2.917661,2.431137 -1.29811,0.542386 -2.753485,0.236927 -3.96902,-0.83303 -1.403718,-1.235602 -1.448231,-2.490499 -0.133035,-3.750449 0.805325,-0.771496 1.33843,-1.043851 3.040311,-1.553247 2.191448,-0.65593 2.367218,-1.049583 2.479694,-5.55352 0.136043,-5.4475681 0.05866,-5.481152 -9.183505,-3.9858065 l -2.901786,0.4694973 -0.0029,5.6420832 c -0.0033,6.42364 -0.189327,9.414951 -0.632092,10.164492 -0.428971,0.726189 -1.790764,1.583207 -3.018592,1.899687 -1.40626,0.362475 -1.824812,0.346616 -2.734361,-0.103602 z"
       id="path4488"
       inkscape:connector-curvature="0"
       transform="matrix(0.26458333,0,0,0.26458333,0,290.38539)" />
    <path
       style="fill:#ffffff;fill-opacity:1;stroke-width:0.17857143"
       d="m 84.168731,23.71578 c -0.943816,-1.293563 -2.266902,-2.463488 -3.243454,-2.867988 -0.500664,-0.207382 -0.745998,-0.196211 -1.822448,0.08298 -2.404584,0.623668 -6.624051,-0.06531 -10.78224,-1.760587 -3.747996,-1.528043 -6.069095,-4.065524 -6.990801,-7.642513 -0.266364,-1.033715 -0.277595,-1.343772 -0.08408,-2.3214286 0.122838,-0.6206004 0.504063,-1.706922 0.847166,-2.4140482 2.35424,-4.8520313 10.052436,-7.60071345 17.66674,-6.30800402 3.977497,0.67527472 6.777991,2.01425022 9.123018,4.36190702 2.29277,2.29534 3.248034,4.7708802 2.755854,7.1417078 -0.453379,2.183913 -2.356579,5.109371 -3.804549,5.84807 -0.399678,0.203902 -1.144207,0.7656 -1.654505,1.248219 l -0.927816,0.87749 0.09085,2.380775 c 0.05826,1.526821 0.02539,2.421232 -0.09165,2.493564 -0.100373,0.06204 -0.587309,-0.442032 -1.082078,-1.120148 z"
       id="path4490"
       inkscape:connector-curvature="0"
       transform="matrix(0.26458333,0,0,0.26458333,0,290.38539)" />
  </g>
</svg>
