<?xml version="1.0" encoding="UTF-8" standalone="no"?>
<!-- Created with Inkscape (http://www.inkscape.org/) -->

<svg
   xmlns:dc="http://purl.org/dc/elements/1.1/"
   xmlns:cc="http://creativecommons.org/ns#"
   xmlns:rdf="http://www.w3.org/1999/02/22-rdf-syntax-ns#"
   xmlns:svg="http://www.w3.org/2000/svg"
   xmlns="http://www.w3.org/2000/svg"
   xmlns:xlink="http://www.w3.org/1999/xlink"
   xmlns:sodipodi="http://sodipodi.sourceforge.net/DTD/sodipodi-0.dtd"
   xmlns:inkscape="http://www.inkscape.org/namespaces/inkscape"
   width="80mm"
   height="60mm"
   viewBox="0 0 80 60"
   version="1.1"
   id="svg8"
   inkscape:version="0.92.1 r15371"
   sodipodi:docname="checked.svg">
  <defs
     id="defs2">
    <inkscape:path-effect
       effect="bspline"
       id="path-effect4517"
       is_visible="true"
       weight="33.333333"
       steps="2"
       helper_size="0"
       apply_no_weight="true"
       apply_with_weight="true"
       only_selected="false" />
    <linearGradient
       inkscape:collect="always"
       id="linearGradient4518">
      <stop
         style="stop-color:#00ff00;stop-opacity:1;"
         offset="0"
         id="stop4514" />
      <stop
         style="stop-color:#00ff00;stop-opacity:0;"
         offset="1"
         id="stop4516" />
    </linearGradient>
    <inkscape:path-effect
       effect="bspline"
       id="path-effect4502"
       is_visible="true"
       weight="33.333333"
       steps="2"
       helper_size="0"
       apply_no_weight="true"
       apply_with_weight="true"
       only_selected="false" />
    <linearGradient
       inkscape:collect="always"
       xlink:href="#linearGradient4518"
       id="linearGradient4520"
       x1="43.436123"
       y1="67.427078"
       x2="53.692451"
       y2="72.954987"
       gradientUnits="userSpaceOnUse"
       gradientTransform="translate(-31.805072,148.33459)" />
    <inkscape:path-effect
       effect="bspline"
       id="path-effect4502-4"
       is_visible="true"
       weight="33.333333"
       steps="2"
       helper_size="0"
       apply_no_weight="true"
       apply_with_weight="true"
       only_selected="false" />
    <linearGradient
       inkscape:collect="always"
       xlink:href="#linearGradient4518"
       id="linearGradient4525"
       x1="63.24649"
       y1="168.82137"
       x2="62.848358"
       y2="156.6606"
       gradientUnits="userSpaceOnUse"
       gradientTransform="translate(-20.312484,53.453907)" />
    <inkscape:path-effect
       effect="bspline"
       id="path-effect4502-40"
       is_visible="true"
       weight="33.333333"
       steps="2"
       helper_size="0"
       apply_no_weight="true"
       apply_with_weight="true"
       only_selected="false" />
  </defs>
  <sodipodi:namedview
     id="base"
     pagecolor="#ffffff"
     bordercolor="#666666"
     borderopacity="1.0"
     inkscape:pageopacity="0.0"
     inkscape:pageshadow="2"
     inkscape:zoom="0.49497475"
     inkscape:cx="200.12393"
     inkscape:cy="-5.0155215"
     inkscape:document-units="mm"
     inkscape:current-layer="layer1"
     showgrid="false"
     inkscape:window-width="1366"
     inkscape:window-height="705"
     inkscape:window-x="-4"
     inkscape:window-y="-4"
     inkscape:window-maximized="1" />
  <metadata
     id="metadata5">
    <rdf:RDF>
      <cc:Work
         rdf:about="">
        <dc:format>image/svg+xml</dc:format>
        <dc:type
           rdf:resource="http://purl.org/dc/dcmitype/StillImage" />
        <dc:title></dc:title>
      </cc:Work>
    </rdf:RDF>
  </metadata>
  <g
     inkscape:label="Layer 1"
     inkscape:groupmode="layer"
     id="layer1"
     transform="translate(0,-237)">
    <path
       style="fill:url(#linearGradient4520);fill-opacity:1;stroke:#000000;stroke-width:0.26499999;stroke-linecap:butt;stroke-linejoin:miter;stroke-miterlimit:4;stroke-dasharray:none;stroke-opacity:1"
       d="m 12.327565,218.56065 c 0.688999,1.07483 2.066988,3.22449 3.016,3.79529 0.949013,0.5708 1.468713,-0.4371 1.980473,-1.53937 0.511759,-1.10226 1.015865,-2.29951 1.8662,-3.65372 0.850336,-1.3542 2.047575,-2.8665 3.260163,-4.07905 1.212588,-1.21255 2.441249,-2.12617 3.228649,-2.74036 0.7874,-0.61419 1.133964,-0.92924 0.158463,-0.69718 -0.975501,0.23206 -3.27635,1.01214 -5.198061,2.41392 -1.92171,1.40177 -3.464881,3.42521 -4.291709,4.51189 -0.826829,1.08669 -0.936989,1.23619 -1.197176,0.81861 -0.260188,-0.41757 -0.669362,-1.40116 -1.114116,-1.90111 -0.444753,-0.49994 -0.92508,-0.51568 -1.462503,-0.40746 -0.537423,0.10822 -1.131925,0.34051 -1.358504,0.64563 -0.226578,0.30513 -0.08478,0.68325 0.05696,1.06123 0.122055,0.2323 0.244058,0.4645 0.305111,0.58069 0.06105,0.1162 0.06105,0.11615 0.750052,1.19099 z"
       id="path4500"
       inkscape:connector-curvature="0"
       inkscape:path-effect="#path-effect4502"
       inkscape:original-d="m 11.638566,217.48581 c 1.378302,2.14948 2.75629,4.29914 4.134114,6.44921 0.520001,-1.00823 1.0397,-2.01613 1.559153,-3.0238 0.504095,-1.19686 1.0082,-2.39411 1.511904,-3.59077 1.196869,-1.51177 2.394114,-3.02407 3.590774,-4.53572 1.228449,-0.91352 2.457108,-1.82714 3.685267,-2.74032 0.34666,-0.31517 0.693222,-0.63023 1.039434,-0.94494 -2.297253,0.77869 -4.598103,1.55877 -6.898064,2.33873 -1.543368,2.02378 -3.086541,4.04722 -4.63021,6.07124 -0.109978,0.14935 -0.220139,0.29885 -0.330728,0.44884 -0.409512,-0.9853 -0.818684,-1.96889 -1.228423,-2.95293 -0.48008,-0.016 -0.960405,-0.0318 -1.441033,-0.0472 -0.594284,0.23204 -1.188785,0.46433 -1.783574,0.69689 0.142005,0.37771 0.425222,1.13393 0.425222,1.13393 0,0 0.244374,0.46433 0.366164,0.69689 z"
       sodipodi:nodetypes="ccccccccccccccc"
       inkscape:export-xdpi="96"
       inkscape:export-ydpi="96" />
    <path
       style="fill:url(#linearGradient4525);fill-opacity:1;stroke:#000000;stroke-width:0.20751478px;stroke-linecap:butt;stroke-linejoin:miter;stroke-opacity:1"
       d="m 35.825532,211.94123 c 1.060871,2.16852 3.795011,6.41581 5.366252,8.53947 1.571241,2.12365 1.979315,2.12365 3.569962,0.046 1.590648,-2.07767 4.367244,-6.2377 5.428303,-8.34626 1.06106,-2.10856 0.408097,-2.16839 -0.95934,-0.65754 -1.367438,1.51085 -3.447985,4.59065 -4.713005,6.13115 -1.26502,1.54051 -1.713878,1.54051 -3.000031,-0.0606 -1.286152,-1.60108 -3.407023,-4.79978 -4.773947,-6.35514 -1.366925,-1.55536 -1.979066,-1.46562 -0.918194,0.7029 z"
       id="path4515"
       inkscape:connector-curvature="0"
       inkscape:path-effect="#path-effect4517"
       inkscape:original-d="m 34.152274,209.86248 c 2.734384,4.24711 5.468524,8.4944 8.202419,12.74187 0.408332,-1.8e-4 0.816406,-1.8e-4 1.224244,0 2.773541,-4.15527 5.550138,-8.3153 8.324842,-12.47268 -0.652652,-0.06 -1.305615,-0.11982 -1.958786,-0.17947 -2.081633,3.0816 -4.162179,6.1614 -6.243633,9.24235 -0.448676,-1.8e-4 -0.897534,-1.8e-4 -1.346667,0 -2.122921,-3.20233 -4.243795,-6.40102 -6.366055,-9.60127 -0.611865,0.0895 -1.223998,0.17929 -1.836364,0.2692 z" />
    <path
       style="opacity:0.98999999;fill:#666666;fill-opacity:1;stroke:#000000;stroke-width:0.26499999;stroke-linecap:butt;stroke-linejoin:miter;stroke-miterlimit:4;stroke-dasharray:none;stroke-opacity:1"
       d="m 60.112887,219.46828 c 0.689,1.07483 2.066989,3.22449 3.016003,3.79529 0.949015,0.57079 1.468711,-0.4371 1.980471,-1.53937 0.511759,-1.10226 1.015865,-2.29951 1.8662,-3.65372 0.850336,-1.3542 2.047575,-2.8665 3.260162,-4.07905 1.212588,-1.21255 2.44125,-2.12617 3.22865,-2.74036 0.787401,-0.61419 1.133963,-0.92924 0.158462,-0.69718 -0.9755,0.23206 -3.276349,1.01214 -5.19806,2.41391 -1.92171,1.40178 -3.464881,3.42522 -4.291709,4.5119 -0.826829,1.08669 -0.936989,1.23619 -1.197176,0.81861 -0.260188,-0.41757 -0.669362,-1.40116 -1.114116,-1.90111 -0.444753,-0.49994 -0.92508,-0.51568 -1.462504,-0.40746 -0.537423,0.10822 -1.131925,0.34051 -1.358504,0.64563 -0.226578,0.30513 -0.08478,0.68325 0.05696,1.06123 0.122055,0.2323 0.244058,0.4645 0.305111,0.58069 0.06105,0.1162 0.06105,0.11615 0.750052,1.19099 z"
       id="path4500-6"
       inkscape:connector-curvature="0"
       inkscape:path-effect="#path-effect4502-40"
       inkscape:original-d="m 59.423888,218.39344 c 1.378303,2.14948 2.756291,4.29914 4.134115,6.44921 0.520001,-1.00824 1.0397,-2.01613 1.559153,-3.0238 0.504095,-1.19686 1.0082,-2.39411 1.511904,-3.59077 1.196869,-1.51177 2.394114,-3.02407 3.590773,-4.53572 1.228449,-0.91352 2.457109,-1.82714 3.685269,-2.74032 0.34666,-0.31517 0.69322,-0.63023 1.03943,-0.94494 -2.29725,0.77869 -4.5981,1.55877 -6.898061,2.33873 -1.543368,2.02378 -3.086541,4.04722 -4.63021,6.07124 -0.109978,0.14935 -0.220139,0.29885 -0.330728,0.44884 -0.409512,-0.9853 -0.818684,-1.96889 -1.228423,-2.95293 -0.48008,-0.016 -0.960405,-0.0318 -1.441034,-0.0472 -0.594284,0.23204 -1.188785,0.46433 -1.783574,0.69689 0.142005,0.37771 0.425222,1.13393 0.425222,1.13393 0,0 0.244374,0.46433 0.366164,0.69689 z"
       sodipodi:nodetypes="ccccccccccccccc"
       inkscape:export-xdpi="96"
       inkscape:export-ydpi="96" />
  </g>
</svg>
